# xmcd
#
# Track frame offsets:
#	150
#	16284
#	32240
#	46931
#	63065
#	76177
#	91661
#	104016
#	120890
#	137279
#
# Disc length: 2069 seconds
# Revision: 0
# Processed by: cddbd v1.5.2PL0 Copyright (c) Steve Scherf et al.
# Submitted via: dBpowerAMP V12.0
#
DISCID=6908130a
DTITLE=Ayla Brown - Ayla Brown
DYEAR=2012
DGENRE=Country
TTITLE0=Ain't Leavin'
TTITLE1=Miss You Already
TTITLE2=Goodbye For Good
TTITLE3=Playin' With Fire
TTITLE4=Country Found Me
TTITLE5=Bring Me Up
TTITLE6=Beat By A Girl
TTITLE7=Buzz Kill
TTITLE8=Don't Mess This Up
TTITLE9=Can't Make Up My Mind
EXTD=
EXTT0=
EXTT1=
EXTT2=
EXTT3=
EXTT4=
EXTT5=
EXTT6=
EXTT7=
EXTT8=
EXTT9=
PLAYORDER=
